<svg width="50" height="50" viewBox="0 0 50 50" fill="none" xmlns="http://www.w3.org/2000/svg">
<g id="Aptos">
<path id="Coin" d="M49.2569 31.0337C45.9209 44.4184 32.3645 52.5916 18.9552 49.2536C5.57049 45.9074 -2.58954 32.3509 0.746426 18.9663C4.08239 5.58158 17.6306 -2.59159 31.0072 0.746403C44.4246 4.04348 52.5847 17.6409 49.2569 31.0337Z" fill="#000008"/>
<g id="Aptos_2">
<path d="M29.9543 13.74C30.2582 13.74 30.5387 13.6153 30.7491 13.3972L32.3386 11.7376C32.5334 11.5272 32.8138 11.4103 33.1021 11.4103H33.1644C33.4683 11.4103 33.7488 11.5428 33.9514 11.7688L35.2914 13.2881C35.5486 13.5764 35.9147 13.74 36.2965 13.74H39.8883C36.468 9.1898 31.0296 6.25244 24.9056 6.25244C18.7816 6.25244 13.3353 9.1898 9.91488 13.74H29.9543Z" fill="white"/>
<path d="M31.8477 18.7966H35.1511L42.5841 18.7888C43.0983 20.2536 43.4334 21.8119 43.5658 23.4169H29.6349C29.2531 23.4169 28.8869 23.2533 28.6298 22.965L27.2897 21.4535C27.087 21.2275 26.8065 21.0951 26.5027 21.0951H26.4404C26.16 21.0951 25.8793 21.2119 25.6846 21.4223L24.0952 23.0819C23.8848 23.3 23.6043 23.4247 23.3004 23.4247H6.22949C6.36189 21.8119 6.69698 20.2614 7.21118 18.8044H25.295C25.8561 18.8044 26.4015 18.5551 26.7754 18.1343L27.9285 16.8332C28.1311 16.6072 28.4115 16.4748 28.7154 16.4748C29.0193 16.4748 29.2998 16.6072 29.5023 16.8332L30.8426 18.3447C31.0996 18.633 31.4659 18.7966 31.8477 18.7966Z" fill="white"/>
<path d="M17.3557 32.8055C17.1454 33.0237 16.8648 33.1483 16.561 33.1483L8.02151 33.1561C7.31253 31.6914 6.79833 30.1253 6.48667 28.4813H18.6335C19.2022 28.4813 19.7476 28.2398 20.1216 27.8112L21.2748 26.5101C21.4696 26.2919 21.7578 26.1595 22.0617 26.1595C22.3656 26.1595 22.6461 26.2841 22.8486 26.5101L24.1887 28.006C24.4458 28.2943 24.812 28.4579 25.1938 28.4579H43.3245C43.0128 30.1019 42.4985 31.668 41.7895 33.1328H22.9031C22.5214 33.1328 22.1551 32.9691 21.8981 32.6809L20.5579 31.1693C20.3631 30.9512 20.0749 30.8187 19.771 30.8187H19.7086C19.4204 30.8187 19.1477 30.9356 18.9451 31.146L17.3557 32.8055Z" fill="white"/>
<path d="M17.8387 37.7842L38.6107 37.792C35.1825 41.454 30.3206 43.7524 24.9056 43.7524C19.4905 43.7524 14.6209 41.454 11.2005 37.792H11.2784C11.8472 37.792 12.3926 37.5505 12.7665 37.122L13.9197 35.8208C14.1145 35.6026 14.4027 35.4702 14.7066 35.4702C15.0105 35.4702 15.291 35.5948 15.4935 35.8208L16.8337 37.3323C17.0907 37.6206 17.457 37.7842 17.8387 37.7842Z" fill="white"/>
</g>
</g>
</svg>
