<svg width="50" height="50" viewBox="0 0 50 50" fill="none" xmlns="http://www.w3.org/2000/svg">
<path d="M49.2464 31.0476C45.9075 44.4406 32.3426 52.5913 18.948 49.2515C5.55903 45.9126 -2.59168 32.3468 0.748713 18.9549C4.08618 5.56048 17.6511 -2.59085 31.0415 0.748085C44.4351 4.08702 52.5854 17.6543 49.2461 31.0479L49.2463 31.0476H49.2464Z" fill="#F3BA2F"/>
<path fill-rule="evenodd" clip-rule="evenodd" d="M25 15.8668L18.5264 22.3404L18.5266 22.3402L14.76 18.5735L25 8.3335L35.2434 18.5766L31.4767 22.3432L25 15.8668ZM12.0998 21.2328L8.33301 25.0002L12.0995 28.7662L15.8663 24.9994L12.0998 21.2328ZM18.5262 27.6604L24.9998 34.1336L31.4764 27.6573L35.245 31.422L35.2432 31.424L24.9998 41.6669L14.7598 31.4269L14.7545 31.4216L18.5262 27.6604ZM37.8997 21.235L34.1329 25.0018L37.8995 28.7683L41.6662 25.0015L37.8997 21.235Z" fill="white"/>
<path d="M28.8202 24.9982H28.8218L24.9999 21.176L22.175 24.0002L21.8504 24.3248L21.1811 24.9943L21.1758 24.9995L21.1811 25.005L24.9999 28.8243L28.822 25.0022L28.8239 25L28.8204 24.9982" fill="white"/>
</svg>
