<svg width="50" height="50" viewBox="0 0 50 50" fill="none" xmlns="http://www.w3.org/2000/svg">
<path d="M49.2523 31.0476C45.9133 44.4406 32.3484 52.5913 18.9538 49.2515C5.56489 45.9126 -2.58582 32.3468 0.754573 18.9549C4.09204 5.56048 17.657 -2.59085 31.0474 0.748085C44.441 4.08702 52.5912 17.6543 49.2519 31.0479L49.2522 31.0476H49.2523Z" fill="#F7931A"/>
<path fill-rule="evenodd" clip-rule="evenodd" d="M36.0266 21.4382C36.5242 18.1112 33.9913 16.3229 30.5277 15.1299L31.6513 10.6232L28.908 9.93964L27.8142 14.3276C27.093 14.1478 26.3523 13.9783 25.6162 13.8102L26.7179 9.39329L23.9763 8.70972L22.8521 13.2149C22.2553 13.079 21.6691 12.9447 21.1004 12.8032L21.1036 12.789L17.3204 11.8443L16.5907 14.7744C16.5907 14.7744 18.626 15.2409 18.5831 15.2697C19.694 15.5469 19.8949 16.2823 19.8615 16.8652L18.5816 21.9993C18.6581 22.0188 18.7574 22.0469 18.8668 22.0909L18.7872 22.071C18.7195 22.054 18.6491 22.0364 18.5769 22.0191L16.7829 29.2113C16.6471 29.5488 16.3025 30.0553 15.5258 29.863C15.5533 29.9028 13.5319 29.3654 13.5319 29.3654L12.1699 32.5056L15.7399 33.3956C16.1308 33.4936 16.517 33.5943 16.8993 33.694L16.8997 33.6941L16.9002 33.6942C17.1672 33.7638 17.4324 33.8329 17.6958 33.9003L16.5606 38.4586L19.3008 39.1422L20.425 34.6323C21.1736 34.8355 21.9 35.0229 22.6112 35.1996L21.4908 39.6883L24.2343 40.3719L25.3694 35.8221C30.0473 36.7074 33.5648 36.3505 35.0453 32.1193C36.2384 28.7126 34.9859 26.7477 32.5249 25.4663C34.3174 25.0529 35.6676 23.874 36.0276 21.4386L36.0267 21.438L36.0266 21.4382ZM29.7589 30.2273C28.981 33.3528 24.0888 32.0606 21.8504 31.4694C21.6491 31.4163 21.4692 31.3688 21.3157 31.3306L22.8222 25.2916C23.0092 25.3383 23.2378 25.3896 23.4967 25.4477C25.8121 25.9673 30.5558 27.0319 29.759 30.2273H29.7589ZM23.9611 22.645C25.8272 23.143 29.8982 24.2295 30.6072 21.3888H30.6074C31.3314 18.4835 27.3751 17.6076 25.4428 17.1798C25.2255 17.1317 25.0337 17.0892 24.8771 17.0502L23.5113 22.5272C23.6402 22.5593 23.7916 22.5997 23.9611 22.645Z" fill="white"/>
</svg>
