<svg width="25" height="25" viewBox="0 0 25 25" fill="none" xmlns="http://www.w3.org/2000/svg">
<g id="mdi:fire">
<path id="Vector" d="M18.3956 11.6667C18.156 11.3542 17.8643 11.0833 17.5935 10.8125C16.8956 10.1875 16.1039 9.73958 15.4372 9.08333C13.8852 7.5625 13.5414 5.05208 14.531 3.125C13.5414 3.36458 12.6768 3.90625 11.9372 4.5C9.23933 6.66667 8.17683 10.4896 9.44766 13.7708C9.48933 13.875 9.531 13.9792 9.531 14.1146C9.531 14.3438 9.37475 14.5521 9.16641 14.6354C8.92683 14.7396 8.67683 14.6771 8.47891 14.5104C8.41944 14.4612 8.36994 14.4011 8.33308 14.3333C7.156 12.8438 6.9685 10.7083 7.76016 9C6.02058 10.4167 5.07266 12.8125 5.20808 15.0729C5.27058 15.5938 5.33308 16.1146 5.51016 16.6354C5.656 17.2604 5.93725 17.8854 6.24975 18.4375C7.37475 20.2396 9.32266 21.5313 11.4164 21.7917C13.6456 22.0729 16.031 21.6667 17.7393 20.125C19.6456 18.3958 20.3122 15.625 19.3331 13.25L19.1977 12.9792C18.9789 12.5 18.3956 11.6667 18.3956 11.6667ZM15.1039 18.2292C14.8122 18.4792 14.3331 18.75 13.9581 18.8542C12.7914 19.2708 11.6247 18.6875 10.9372 18C12.1768 17.7083 12.9164 16.7917 13.1352 15.8646C13.3122 15.0312 12.9789 14.3438 12.8435 13.5417C12.7185 12.7708 12.7393 12.1146 13.0206 11.3958C13.2185 11.7917 13.4268 12.1875 13.6768 12.5C14.4789 13.5417 15.7393 14 16.0102 15.4167C16.0518 15.5625 16.0727 15.7083 16.0727 15.8646C16.1039 16.7188 15.7289 17.6563 15.1039 18.2292Z" fill="#FF8300"/>
</g>
</svg>
