<svg width="60" height="60" viewBox="0 0 60 60" fill="none" xmlns="http://www.w3.org/2000/svg">
<circle cx="30" cy="30" r="30" fill="white"/>
<path fill-rule="evenodd" clip-rule="evenodd" d="M30 0C46.5699 0 60 13.4301 60 30C60 46.5699 46.5699 60 30 60C13.4301 60 0 46.5699 0 30C0 13.4301 13.4301 0 30 0ZM44.3316 15.6062C42.5907 13.8653 39.7306 13.8653 37.9896 15.6062C36.9637 16.6321 36.4974 18.0933 36.715 19.4922C36.7772 19.9585 36.7461 20.456 36.5285 20.8912C36.2487 21.4508 35.7824 21.8549 35.2228 22.0725C34.6632 22.2902 34.0104 22.2902 33.4508 22.0104C30.2176 20.5181 26.3316 21.2021 23.7824 23.7513C21.2332 26.2694 20.5492 30.1554 22.0415 33.4197C22.3212 34.0104 22.3212 34.6632 22.1036 35.2228C21.9171 35.7513 21.513 36.2176 20.9223 36.4974C20.6114 36.6528 20.3005 36.715 19.9585 36.715C19.8031 36.715 19.6477 36.6839 19.4922 36.6528H19.4301C18.0311 36.4663 16.6632 36.9016 15.6373 37.9275C14.7979 38.7668 14.3316 39.9171 14.3316 41.0984C14.3316 42.3109 14.7979 43.43 15.6373 44.2694C17.3782 46.0104 20.2383 46.0104 21.9793 44.2694C22.9741 43.2435 23.4715 41.7824 23.2228 40.3523V40.1347C23.1917 39.7306 23.285 39.3575 23.4404 38.9845C23.6891 38.4249 24.1554 38.0207 24.715 37.8031C25.2746 37.5855 25.8964 37.5855 26.487 37.8653C29.7202 39.3575 33.6062 38.6736 36.1554 36.1244C38.7047 33.6062 39.3886 29.6891 37.8964 26.456C37.6477 25.8964 37.6166 25.2746 37.8342 24.715C38.0518 24.1554 38.456 23.6891 39.0466 23.4093C39.4819 23.2228 39.9171 23.1606 40.3212 23.2228H40.5389C41.9378 23.4093 43.3057 22.9741 44.3316 21.9482C46.0725 20.2073 46.0725 17.3472 44.3316 15.6062ZM33.544 26.487C35.4715 28.4456 35.4715 31.5855 33.544 33.513C31.6166 35.4404 28.4767 35.4404 26.5181 33.513C24.5907 31.5544 24.5907 28.4145 26.5181 26.487C28.4767 24.5596 31.6166 24.5596 33.544 26.487ZM45.9793 14.0207C48.6218 16.6943 48.6218 20.9845 45.9793 23.6269C44.9845 24.5907 43.772 25.2124 42.5285 25.5233C44.3005 30.3109 43.1503 35.7824 39.4819 39.4508C36.9637 41.9689 33.5751 43.3057 30.1244 43.3057C28.57 43.3057 27.0155 43.0259 25.5233 42.4663C25.2746 43.7409 24.6529 44.9845 23.658 45.9793C20.9845 48.6218 16.6943 48.6218 14.0518 45.9793C11.4093 43.3057 11.4093 39.0155 14.0518 36.3731C15.0466 35.3782 16.2591 34.7565 17.5337 34.5078C15.6995 29.6891 16.8497 24.1554 20.5181 20.487C24.1865 16.8187 29.6891 15.6684 34.5078 17.4715C34.7876 16.228 35.3782 15.0155 36.3731 14.0207C39.0466 11.3782 43.3368 11.3782 45.9793 14.0207Z" fill="#38A2FF"/>
</svg>
