<svg width="50" height="50" viewBox="0 0 50 50" fill="none" xmlns="http://www.w3.org/2000/svg">
<path d="M49.2569 31.0337C45.9209 44.4184 32.3645 52.5916 18.9552 49.2536C5.57049 45.9074 -2.58954 32.3509 0.746426 18.9663C4.08239 5.58158 17.6306 -2.59159 31.0072 0.746403C44.4246 4.04348 52.5847 17.6409 49.2569 31.0337Z" fill="#000008"/>
<path d="M40.4426 32.7193L35.2838 38.1091C35.1717 38.2262 35.036 38.3195 34.8852 38.3833C34.7345 38.4471 34.5718 38.48 34.4074 38.4799H9.95241C9.83572 38.4799 9.72158 38.4467 9.624 38.3844C9.52642 38.322 9.44966 38.2333 9.40315 38.129C9.35664 38.0248 9.3424 37.9096 9.36219 37.7975C9.38198 37.6855 9.43493 37.5815 9.51454 37.4984L14.6772 32.1086C14.789 31.9919 14.9243 31.8987 15.0746 31.8349C15.2249 31.7711 15.387 31.7381 15.5509 31.7378H40.0046C40.1213 31.7378 40.2354 31.771 40.3331 31.8334C40.4306 31.8957 40.5073 31.9845 40.554 32.0887C40.6004 32.193 40.6147 32.3082 40.5949 32.4202C40.5751 32.5322 40.5221 32.6362 40.4426 32.7193ZM35.2838 21.8658C35.1717 21.7487 35.036 21.6554 34.8852 21.5916C34.7345 21.5278 34.5718 21.4949 34.4074 21.495H9.95241C9.83572 21.495 9.72158 21.5282 9.624 21.5906C9.52642 21.6529 9.44966 21.7416 9.40315 21.8459C9.35664 21.9502 9.3424 22.0654 9.36219 22.1774C9.38198 22.2894 9.43493 22.3934 9.51454 22.4765L14.6772 27.8663C14.789 27.9831 14.9243 28.0762 15.0746 28.14C15.2249 28.2038 15.387 28.2368 15.5509 28.2371H40.0046C40.1213 28.2371 40.2354 28.2039 40.3331 28.1416C40.4306 28.0792 40.5073 27.9905 40.554 27.8862C40.6004 27.782 40.6147 27.6667 40.5949 27.5547C40.5751 27.4427 40.5221 27.3387 40.4426 27.2556L35.2838 21.8658ZM9.95241 17.9943H34.4074C34.5718 17.9944 34.7345 17.9615 34.8852 17.8977C35.036 17.8339 35.1717 17.7406 35.2838 17.6235L40.4426 12.2337C40.5221 12.1506 40.5751 12.0466 40.5949 11.9346C40.6147 11.8226 40.6004 11.7073 40.554 11.6031C40.5073 11.4988 40.4306 11.4101 40.3331 11.3477C40.2354 11.2854 40.1213 11.2522 40.0046 11.2522H15.5509C15.387 11.2525 15.2249 11.2855 15.0746 11.3493C14.9243 11.4131 14.789 11.5062 14.6772 11.623L9.51587 17.0128C9.43634 17.0958 9.38341 17.1997 9.36358 17.3116C9.34374 17.4235 9.35787 17.5386 9.40421 17.6428C9.45056 17.747 9.52712 17.8358 9.62449 17.8982C9.72187 17.9606 9.83584 17.994 9.95241 17.9943Z" fill="url(#paint0_linear_708_1439)"/>
<defs>
<linearGradient id="paint0_linear_708_1439" x1="11.9914" y1="39.1288" x2="36.8886" y2="10.319" gradientUnits="userSpaceOnUse">
<stop offset="0.08" stop-color="#9945FF"/>
<stop offset="0.3" stop-color="#8752F3"/>
<stop offset="0.5" stop-color="#5497D5"/>
<stop offset="0.6" stop-color="#43B4CA"/>
<stop offset="0.72" stop-color="#28E0B9"/>
<stop offset="0.97" stop-color="#19FB9B"/>
</linearGradient>
</defs>
</svg>
