<svg width="50" height="50" viewBox="0 0 50 50" fill="none" xmlns="http://www.w3.org/2000/svg">
<circle cx="25" cy="25" r="25" fill="url(#paint0_linear_708_1445)"/>
<path fill-rule="evenodd" clip-rule="evenodd" d="M15.9376 18.3989C16.2615 18.3989 16.5647 18.5367 16.7645 18.7848L19.3003 21.8926L22.6424 17.8201L20.9266 15.7253C19.6311 14.2713 18.0944 13.5409 16.3166 13.5409H9.26038C9.20526 13.534 9.15702 13.5546 9.11567 13.596C9.08122 13.6304 9.06055 13.6718 9.06055 13.72V18.2197C9.06055 18.268 9.08122 18.3093 9.11567 18.3438C9.15702 18.3782 9.20526 18.3989 9.26038 18.3989H15.9376ZM33.7301 13.5409C31.9316 13.5409 30.388 14.2644 29.0994 15.7046L21.5953 24.8763L16.7648 30.7749C16.5581 31.0161 16.2549 31.1608 15.9379 31.1608H9.26066C9.21242 31.1539 9.16419 31.1746 9.12973 31.2159C9.10217 31.2504 9.08839 31.2917 9.08839 31.3399V35.8397C9.0815 35.8879 9.09528 35.943 9.12973 35.9844C9.1573 36.0188 9.21242 36.0464 9.26066 36.0395H16.3031C18.1016 36.0395 19.6452 35.3091 20.9338 33.8551L25.0269 28.8592L29.1201 33.8551C30.4018 35.3091 31.9316 36.0395 33.7301 36.0395H40.7587C40.807 36.0464 40.8552 36.0257 40.8897 35.9844C40.9172 35.9499 40.931 35.9086 40.931 35.8603V31.3606C40.9379 31.3124 40.9172 31.2573 40.8897 31.2159C40.8621 31.1815 40.807 31.1539 40.7587 31.1608H34.0815C33.7783 31.1677 33.482 31.0299 33.2822 30.8025L28.3414 24.773L33.2615 18.7848C33.4682 18.5368 33.7714 18.392 34.0884 18.3989H40.7656C40.8139 18.4058 40.8621 18.3852 40.8965 18.3438C40.9241 18.3094 40.9379 18.268 40.9379 18.2198V13.72C40.9448 13.6649 40.931 13.6167 40.8965 13.5822C40.8621 13.5547 40.8139 13.534 40.7656 13.5409H33.7301Z" fill="#00D1FF"/>
<defs>
<linearGradient id="paint0_linear_708_1445" x1="18.3882" y1="-0.000144708" x2="18.3882" y2="13.2303" gradientUnits="userSpaceOnUse">
<stop stop-color="#090220"/>
<stop offset="1" stop-color="#170659"/>
</linearGradient>
</defs>
</svg>
