<svg width="50" height="50" viewBox="0 0 50 50" fill="none" xmlns="http://www.w3.org/2000/svg">
<path d="M49.2464 31.0476C45.9075 44.4406 32.3426 52.5913 18.948 49.2515C5.55903 45.9126 -2.59168 32.3468 0.748713 18.9549C4.08618 5.56048 17.6511 -2.59085 31.0415 0.748085C44.4351 4.08702 52.5854 17.6543 49.2461 31.0479L49.2463 31.0476H49.2464Z" fill="#50AF95"/>
<path fill-rule="evenodd" clip-rule="evenodd" d="M28.1625 27.8342C27.9858 27.8475 27.0725 27.902 25.0351 27.902C23.4147 27.902 22.2642 27.8533 21.8606 27.8342C15.5984 27.5587 10.9243 26.4686 10.9243 25.1635C10.9243 23.8583 15.5984 22.7697 21.8606 22.4898V26.7485C22.2701 26.778 23.4427 26.8472 25.0631 26.8472C27.0076 26.8472 27.9814 26.7662 28.1567 26.75V22.4927C34.4056 22.7711 39.0694 23.8612 39.0694 25.1635C39.0694 26.4657 34.407 27.5558 28.1567 27.8327L28.1625 27.8342ZM28.1626 22.0523V18.2413H36.8834V12.4299H13.1399V18.2413H21.8592V22.0508C14.7721 22.3763 9.44238 23.7802 9.44238 25.4625C9.44238 27.1448 14.7721 28.5472 21.8592 28.8742V41.0862H28.1611V28.8698C35.232 28.5442 40.5529 27.1418 40.5529 25.461C40.5529 23.7802 35.2365 22.3778 28.1611 22.0508L28.1626 22.0523Z" fill="white"/>
</svg>
