<svg width="34" height="34" viewBox="0 0 34 34" fill="none" xmlns="http://www.w3.org/2000/svg">
<path d="M29.7503 29.7503L23.5977 23.5977M23.5977 23.5977C24.6501 22.5453 25.485 21.2959 26.0545 19.9208C26.6241 18.5458 26.9172 17.072 26.9172 15.5836C26.9172 14.0953 26.6241 12.6215 26.0545 11.2464C25.485 9.87138 24.6501 8.62197 23.5977 7.56954C22.5453 6.51712 21.2959 5.68229 19.9208 5.11272C18.5458 4.54315 17.072 4.25 15.5836 4.25C14.0953 4.25 12.6215 4.54315 11.2464 5.11272C9.87138 5.68229 8.62197 6.51712 7.56954 7.56954C5.44407 9.69501 4.25 12.5778 4.25 15.5836C4.25 18.5895 5.44407 21.4722 7.56954 23.5977C9.69501 25.7232 12.5778 26.9172 15.5836 26.9172C18.5895 26.9172 21.4722 25.7232 23.5977 23.5977Z" stroke="black" stroke-width="2" stroke-linecap="round" stroke-linejoin="round"/>
</svg>
