<svg width="31" height="31" viewBox="0 0 31 31" fill="none" xmlns="http://www.w3.org/2000/svg">
<path d="M15.4035 0.96875C9.10664 0.96875 3.73008 5.0375 1.74414 10.6562H29.1598C27.1254 5.0375 21.7488 0.96875 15.4035 0.96875Z" fill="#F2B200"/>
<path d="M15.4035 30.0312C21.7488 30.0312 27.1254 26.0109 29.1113 20.3438H1.74414C3.73008 26.0109 9.10664 30.0312 15.4035 30.0312Z" fill="#83BF4F"/>
<path d="M1.74336 10.6562C1.21055 12.1578 0.919922 13.8047 0.919922 15.5C0.919922 17.1953 1.21055 18.8422 1.74336 20.3438H29.159C29.6918 18.8422 29.9824 17.1953 29.9824 15.5C29.9824 13.8047 29.6918 12.1578 29.159 10.6562H1.74336Z" fill="white"/>
<path d="M15.4033 19.375C17.5434 19.375 19.2783 17.6401 19.2783 15.5C19.2783 13.3599 17.5434 11.625 15.4033 11.625C13.2632 11.625 11.5283 13.3599 11.5283 15.5C11.5283 17.6401 13.2632 19.375 15.4033 19.375Z" fill="#428BC1"/>
<path d="M15.4033 18.8906C17.2759 18.8906 18.7939 17.3726 18.7939 15.5C18.7939 13.6274 17.2759 12.1094 15.4033 12.1094C13.5307 12.1094 12.0127 13.6274 12.0127 15.5C12.0127 17.3726 13.5307 18.8906 15.4033 18.8906Z" fill="white"/>
<path d="M14.1436 12.5938C14.2773 12.5938 14.3857 12.4853 14.3857 12.3516C14.3857 12.2178 14.2773 12.1094 14.1436 12.1094C14.0098 12.1094 13.9014 12.2178 13.9014 12.3516C13.9014 12.4853 14.0098 12.5938 14.1436 12.5938Z" fill="#428BC1"/>
<path d="M13.3682 13.0295C13.5019 13.0295 13.6104 12.9211 13.6104 12.7874C13.6104 12.6536 13.5019 12.5452 13.3682 12.5452C13.2344 12.5452 13.126 12.6536 13.126 12.7874C13.126 12.9211 13.2344 13.0295 13.3682 13.0295Z" fill="#428BC1"/>
<path d="M12.7383 13.6592C12.872 13.6592 12.9805 13.5507 12.9805 13.417C12.9805 13.2832 12.872 13.1748 12.7383 13.1748C12.6045 13.1748 12.4961 13.2832 12.4961 13.417C12.4961 13.5507 12.6045 13.6592 12.7383 13.6592Z" fill="#428BC1"/>
<path d="M12.3027 14.4343C12.4365 14.4343 12.5449 14.3259 12.5449 14.1921C12.5449 14.0584 12.4365 13.95 12.3027 13.95C12.169 13.95 12.0605 14.0584 12.0605 14.1921C12.0605 14.3259 12.169 14.4343 12.3027 14.4343Z" fill="#428BC1"/>
<path d="M12.0605 15.3062C12.1943 15.3062 12.3027 15.1977 12.3027 15.064C12.3027 14.9302 12.1943 14.8218 12.0605 14.8218C11.9268 14.8218 11.8184 14.9302 11.8184 15.064C11.8184 15.1977 11.9268 15.3062 12.0605 15.3062Z" fill="#428BC1"/>
<path d="M12.0605 16.178C12.1943 16.178 12.3027 16.0695 12.3027 15.9358C12.3027 15.802 12.1943 15.6936 12.0605 15.6936C11.9268 15.6936 11.8184 15.802 11.8184 15.9358C11.8184 16.0695 11.9268 16.178 12.0605 16.178Z" fill="#428BC1"/>
<path d="M12.3027 17.0498C12.4365 17.0498 12.5449 16.9414 12.5449 16.8076C12.5449 16.6739 12.4365 16.5654 12.3027 16.5654C12.169 16.5654 12.0605 16.6739 12.0605 16.8076C12.0605 16.9414 12.169 17.0498 12.3027 17.0498Z" fill="#428BC1"/>
<path d="M12.7383 17.825C12.872 17.825 12.9805 17.7165 12.9805 17.5828C12.9805 17.449 12.872 17.3406 12.7383 17.3406C12.6045 17.3406 12.4961 17.449 12.4961 17.5828C12.4961 17.7165 12.6045 17.825 12.7383 17.825Z" fill="#428BC1"/>
<path d="M13.3682 18.4546C13.5019 18.4546 13.6104 18.3462 13.6104 18.2124C13.6104 18.0786 13.5019 17.9702 13.3682 17.9702C13.2344 17.9702 13.126 18.0786 13.126 18.2124C13.126 18.3462 13.2344 18.4546 13.3682 18.4546Z" fill="#428BC1"/>
<path d="M14.1436 18.8906C14.2773 18.8906 14.3857 18.7822 14.3857 18.6484C14.3857 18.5147 14.2773 18.4062 14.1436 18.4062C14.0098 18.4062 13.9014 18.5147 13.9014 18.6484C13.9014 18.7822 14.0098 18.8906 14.1436 18.8906Z" fill="#428BC1"/>
<path d="M14.9668 19.0842C15.1006 19.0842 15.209 18.9758 15.209 18.842C15.209 18.7083 15.1006 18.5999 14.9668 18.5999C14.833 18.5999 14.7246 18.7083 14.7246 18.842C14.7246 18.9758 14.833 19.0842 14.9668 19.0842Z" fill="#428BC1"/>
<path d="M15.6445 18.8905C15.6445 18.7452 15.7414 18.6483 15.8383 18.5999C15.9836 18.5999 16.0805 18.6967 16.1289 18.7936C16.1289 18.9389 16.032 19.0358 15.9352 19.0842C15.7414 19.1327 15.6445 19.0358 15.6445 18.8905Z" fill="#428BC1"/>
<path d="M16.7109 18.8906C16.8447 18.8906 16.9531 18.7822 16.9531 18.6484C16.9531 18.5147 16.8447 18.4062 16.7109 18.4062C16.5772 18.4062 16.4688 18.5147 16.4688 18.6484C16.4688 18.7822 16.5772 18.8906 16.7109 18.8906Z" fill="#428BC1"/>
<path d="M17.4854 18.4546C17.6191 18.4546 17.7275 18.3462 17.7275 18.2124C17.7275 18.0786 17.6191 17.9702 17.4854 17.9702C17.3516 17.9702 17.2432 18.0786 17.2432 18.2124C17.2432 18.3462 17.3516 18.4546 17.4854 18.4546Z" fill="#428BC1"/>
<path d="M18.1152 17.825C18.249 17.825 18.3574 17.7165 18.3574 17.5828C18.3574 17.449 18.249 17.3406 18.1152 17.3406C17.9815 17.3406 17.873 17.449 17.873 17.5828C17.873 17.7165 17.9815 17.825 18.1152 17.825Z" fill="#428BC1"/>
<path d="M18.5508 17.0498C18.6845 17.0498 18.793 16.9414 18.793 16.8076C18.793 16.6739 18.6845 16.5654 18.5508 16.5654C18.417 16.5654 18.3086 16.6739 18.3086 16.8076C18.3086 16.9414 18.417 17.0498 18.5508 17.0498Z" fill="#428BC1"/>
<path d="M18.793 16.178C18.9267 16.178 19.0352 16.0695 19.0352 15.9358C19.0352 15.802 18.9267 15.6936 18.793 15.6936C18.6592 15.6936 18.5508 15.802 18.5508 15.9358C18.5508 16.0695 18.6592 16.178 18.793 16.178Z" fill="#428BC1"/>
<path d="M18.7936 15.3062C18.6482 15.3062 18.5514 15.2093 18.5029 15.1124C18.5029 14.9671 18.5998 14.8702 18.6967 14.8218C18.842 14.8218 18.9389 14.9187 18.9873 15.0155C19.0357 15.1608 18.9389 15.2577 18.7936 15.3062Z" fill="#428BC1"/>
<path d="M18.5508 14.4343C18.6845 14.4343 18.793 14.3259 18.793 14.1921C18.793 14.0584 18.6845 13.95 18.5508 13.95C18.417 13.95 18.3086 14.0584 18.3086 14.1921C18.3086 14.3259 18.417 14.4343 18.5508 14.4343Z" fill="#428BC1"/>
<path d="M18.1152 13.6592C18.249 13.6592 18.3574 13.5507 18.3574 13.417C18.3574 13.2832 18.249 13.1748 18.1152 13.1748C17.9815 13.1748 17.873 13.2832 17.873 13.417C17.873 13.5507 17.9815 13.6592 18.1152 13.6592Z" fill="#428BC1"/>
<path d="M17.4854 13.0295C17.6191 13.0295 17.7275 12.9211 17.7275 12.7874C17.7275 12.6536 17.6191 12.5452 17.4854 12.5452C17.3516 12.5452 17.2432 12.6536 17.2432 12.7874C17.2432 12.9211 17.3516 13.0295 17.4854 13.0295Z" fill="#428BC1"/>
<path d="M16.9527 12.4483C16.9043 12.5937 16.759 12.6421 16.6137 12.5937C16.4684 12.5452 16.4199 12.3999 16.4684 12.2546C16.5168 12.1093 16.6621 12.0608 16.8074 12.1093C16.9527 12.2062 17.0012 12.3515 16.9527 12.4483ZM16.0809 12.1577C16.0809 12.303 15.9355 12.3999 15.7902 12.3515C15.6449 12.3515 15.548 12.2062 15.5965 12.0608C15.5965 11.9155 15.7418 11.8187 15.8871 11.8671C16.0324 11.9155 16.1293 12.0608 16.0809 12.1577ZM15.209 12.1093C15.209 12.2546 15.1121 12.3515 15.0152 12.3999C14.8699 12.3999 14.773 12.303 14.7246 12.2062C14.7246 12.0608 14.8215 11.964 14.9184 11.9155C15.0637 11.8671 15.209 11.964 15.209 12.1093Z" fill="#428BC1"/>
<path d="M15.4023 16.2266C15.8036 16.2266 16.1289 15.9013 16.1289 15.5C16.1289 15.0987 15.8036 14.7734 15.4023 14.7734C15.0011 14.7734 14.6758 15.0987 14.6758 15.5C14.6758 15.9013 15.0011 16.2266 15.4023 16.2266Z" fill="#428BC1"/>
<path d="M15.4031 12.1094L15.3063 14.1922L15.4031 15.5L15.5484 14.1922L15.4031 12.1094ZM14.5312 12.2063L14.9672 14.2891L15.4031 15.5L15.2094 14.1922L14.5312 12.2063Z" fill="#428BC1"/>
<path d="M13.7074 12.5452L14.6762 14.4342L15.4027 15.4999L14.8699 14.2889L13.7074 12.5452ZM13.0293 13.078L14.434 14.6764L15.4027 15.4999L14.5793 14.4827L13.0293 13.078Z" fill="#428BC1"/>
<path d="M12.4961 13.8047L14.2398 14.9672L15.4023 15.5L14.3367 14.725L12.4961 13.8047Z" fill="#428BC1"/>
<path d="M12.157 14.6279L14.143 15.2576L15.4023 15.4998L14.1914 15.0639L12.157 14.6279ZM12.0117 15.4998L14.143 15.5967L15.4023 15.4998L14.143 15.4029L12.0117 15.4998Z" fill="#428BC1"/>
<path d="M12.1572 16.3719L14.1916 15.9359L15.4025 15.5L14.1432 15.7422L12.1572 16.3719ZM12.4963 17.1953L14.3369 16.275L15.4025 15.5L14.24 16.0328L12.4963 17.1953Z" fill="#428BC1"/>
<path d="M13.0293 17.8734L14.5793 16.5172L15.4027 15.5L14.434 16.3234L13.0293 17.8734ZM13.7074 18.4547L14.8699 16.6625L15.4027 15.5L14.6762 16.5656L13.7074 18.4547Z" fill="#428BC1"/>
<path d="M14.5312 18.7937L15.2094 16.8078L15.4031 15.5L14.9672 16.7109L14.5312 18.7937ZM15.4031 18.8906L15.5484 16.8078L15.4031 15.5L15.3063 16.8078L15.4031 18.8906ZM16.275 18.7937L15.8875 16.7109L15.4031 15.5L15.6453 16.8078L16.275 18.7937Z" fill="#428BC1"/>
<path d="M17.0977 18.4547L16.1773 16.5656L15.4023 15.5L15.9836 16.7109L17.0977 18.4547ZM17.8242 17.8734L16.4195 16.3234L15.4023 15.5L16.2742 16.5172L17.8242 17.8734Z" fill="#428BC1"/>
<path d="M18.357 17.1951L16.6133 16.0326L15.4023 15.4998L16.468 16.2748L18.357 17.1951ZM18.6961 16.3717L16.7102 15.742L15.4023 15.4998L16.6617 15.9357L18.6961 16.3717ZM18.793 15.4998L16.7102 15.3545L15.4023 15.4998L16.7102 15.5967L18.793 15.4998ZM18.6961 14.6279L16.6617 15.0639L15.4023 15.4998L16.7102 15.2576L18.6961 14.6279Z" fill="#428BC1"/>
<path d="M18.357 13.8046L16.468 14.7249L15.4023 15.4999L16.6133 14.9671L18.357 13.8046ZM17.8242 13.1265L16.2742 14.4827L15.4023 15.4999L16.4195 14.6765L17.8242 13.1265Z" fill="#428BC1"/>
<path d="M17.0977 12.5452L15.9836 14.3374L15.4023 15.4999L16.1773 14.4342L17.0977 12.5452Z" fill="#428BC1"/>
<path d="M16.3227 12.2061L15.6445 14.192L15.4023 15.4998L15.8867 14.2889L16.3227 12.2061Z" fill="#428BC1"/>
</svg>
